<?xml version="1.0" encoding="iso-8859-1"?>
<!-- Uploaded to: SVG Repo, www.svgrepo.com, Generator: SVG Repo Mixer Tools -->
<svg fill="#000000" height="800px" width="800px" version="1.1" id="Layer_1" xmlns="http://www.w3.org/2000/svg" xmlns:xlink="http://www.w3.org/1999/xlink" 
	 viewBox="0 0 512 512" xml:space="preserve">
<g>
	<g>
		<g>
			<path d="M256,0C114.509,0,0,114.498,0,256c0,141.491,114.498,256,256,256c141.491,0,256-114.498,256-256
				C512,114.509,397.502,0,256,0z M256,478.609c-122.746,0-222.609-99.862-222.609-222.609S133.254,33.391,256,33.391
				S478.609,133.254,478.609,256S378.746,478.609,256,478.609z"/>
			<path d="M256,55.652C145.515,55.652,55.652,145.554,55.652,256c0,110.472,89.876,200.348,200.348,200.348
				c110.668,0,200.348-90.081,200.348-200.348C456.348,145.528,366.472,55.652,256,55.652z M316.072,100.228
				c44.073,17.055,79.153,52.297,95.994,96.475l-95.994,55.422C316.072,246.635,316.072,105.742,316.072,100.228z M282.681,91.185
				V202.04c-4.757-2.746-126.709-73.156-131.475-75.907C189.441,95.219,237.351,83.874,282.681,91.185z M195.928,411.772
				c-44.073-17.055-79.153-52.297-95.994-96.475l95.994-55.422C195.928,265.365,195.928,406.258,195.928,411.772z M91.049,281.868
				c-7.26-46.482,5.212-94.115,35.63-131.34l95.93,55.385C217.855,208.658,95.825,279.111,91.049,281.868z M229.319,240.595
				L229.319,240.595L256,225.191l26.681,15.404v30.809L256,286.809l-26.681-15.404V240.595z M229.319,420.815V309.96
				c4.757,2.746,126.709,73.156,131.475,75.907C322.559,416.781,274.65,428.125,229.319,420.815z M385.321,361.472l-95.93-55.385
				c4.754-2.745,126.783-73.198,131.56-75.955C428.211,276.612,415.738,324.247,385.321,361.472z"/>
		</g>
	</g>
</g>
</svg>